<svg xmlns="http://www.w3.org/2000/svg" viewBox="0 0 1560 1286.22" width="1560" height="1286.22">

<g transform="translate(-89,834) scale(1,-1)" fill="#FAFAFA"><path transform="translate(0,0)" d="M88.9998779296875 0V707H557.6669311523438V641.6658325195312H161.00079345703125V383.333740234375H517.6669921875V317.3328857421875H161.00079345703125V65.33416748046875H557.6669311523438V0Z"/><path transform="translate(628,0)" d="M18.00018310546875 0V132.99908447265625L212.4002685546875 292.3992919921875Q232.20037841796875 308.9993896484375 257.9004821777344 329.6994934082031Q283.6005859375 350.39959716796875 307.50067138671875 374.7997131347656Q331.4007568359375 399.1998291015625 347.3008117675781 425.29998779296875Q363.20086669921875 451.400146484375 363.20086669921875 478.80035400390625Q363.20086669921875 515.6007690429688 340.400634765625 539.700927734375Q317.60040283203125 563.8010864257812 270.400146484375 563.8010864257812Q223.40008544921875 563.8010864257812 199.39987182617188 542.4010925292969Q175.399658203125 521.0010986328125 170.59954833984375 489.80096435546875H17.6004638671875Q22.00054931640625 567.2006225585938 59.10052490234375 617.1004028320312Q96.20050048828125 667.0001831054688 153.900390625 691.8000793457031Q211.60028076171875 716.5999755859375 276.0001220703125 716.5999755859375Q343.60009765625 716.5999755859375 399.70001220703125 691.3999938964844Q455.7999267578125 666.2000122070312 489.4998474121094 617.5000610351562Q523.1997680664062 568.8001098632812 523.1997680664062 498.00018310546875Q523.1997680664062 440.2000732421875 501.0997314453125 391.6000671386719Q478.99969482421875 343.00006103515625 439.8996887207031 301.10009765625Q400.7996826171875 259.20013427734375 350.999755859375 220.400146484375L260.79840087890625 149.39892578125H519.199951171875V0Z"/><path transform="translate(1187,0)" d="M145.80035400390625 0V503.0009765625H9.000244140625V626.7999877929688Q50.6002197265625 627.4000244140625 84.05783988334036 634.3521914274796Q117.51546004011824 641.3043584408967 143.9577727446685 658.9521670134171Q170.40008544921875 676.5999755859375 190.2000732421875 707.7999877929688H307.99920654296875V0Z"/></g>
<rect x="0" y="932.98" width="535.0576000000001" height="226.24" rx="40.7232" ry="40.7232" fill="#1A365D"/>
<g transform="translate(124.432,1091.348) scale(0.11312,-0.11312)" fill="#FFFFFF"><path transform="translate(0,0)" d="M78.99951171875 0V707.4000244140625H249.8018798828125L446.200927734375 350.001953125L640.4000244140625 707.4000244140625H805.80224609375V0H681.199951171875V549.39599609375L469.80126953125 166.9989013671875H417.4005126953125L203.601806640625 549.39599609375V0Z"/><path transform="translate(1035.0,0)" d="M78.99951171875 0V707.4000244140625H577.6009521484375V592.7978515625H203.601806640625V406.801025390625H529.400390625V294.799072265625H203.601806640625V114.2021484375H577.6009521484375V0Z"/><path transform="translate(1803.0,0)" d="M78.99951171875 0V707.4000244140625H340.400146484375Q451.2001953125 707.4000244140625 528.2003784179688 664.7001342773438Q605.2005615234375 622.000244140625 645.500732421875 542.7002563476562Q685.8009033203125 463.4002685546875 685.8009033203125 352.199951171875Q685.8009033203125 242.7996826171875 646.4007568359375 163.89971923828125Q607.0006103515625 84.999755859375 530.200439453125 42.4998779296875Q453.4002685546875 0 341.2001953125 0ZM203.601806640625 114.2021484375H338.400390625Q416.7999267578125 114.2021484375 465.19952392578125 144.60186767578125Q513.59912109375 175.0015869140625 536.3988647460938 228.70111083984375Q559.1986083984375 282.400634765625 559.1986083984375 353Q559.1986083984375 421.599365234375 536.8988647460938 475.79888916015625Q514.59912109375 529.9984130859375 466.199462890625 561.3981323242188Q417.7998046875 592.7978515625 338.60009765625 592.7978515625H203.601806640625Z"/></g>
</svg>
